<svg width="39" height="15" viewBox="0 0 39 15" fill="none" xmlns="http://www.w3.org/2000/svg">
<path d="M5.024 13.16C4.10667 13.16 3.296 12.9787 2.592 12.616C1.89867 12.2533 1.30133 11.7093 0.8 10.984L1.984 9.624C2.50667 10.3707 3.008 10.888 3.488 11.176C3.968 11.464 4.53867 11.608 5.2 11.608C5.60533 11.608 5.97333 11.544 6.304 11.416C6.63467 11.288 6.896 11.112 7.088 10.888C7.28 10.664 7.376 10.408 7.376 10.12C7.376 9.928 7.344 9.74667 7.28 9.576C7.216 9.40533 7.11467 9.25067 6.976 9.112C6.848 8.97333 6.67733 8.84533 6.464 8.728C6.26133 8.61067 6.02133 8.50933 5.744 8.424C5.46667 8.328 5.14667 8.248 4.784 8.184C4.016 8.03467 3.376 7.81067 2.864 7.512C2.36267 7.21333 1.984 6.83467 1.728 6.376C1.48267 5.91733 1.36 5.384 1.36 4.776C1.36 4.328 1.456 3.912 1.648 3.528C1.85067 3.144 2.12267 2.81333 2.464 2.536C2.816 2.248 3.22667 2.02933 3.696 1.88C4.16533 1.72 4.672 1.64 5.216 1.64C6.08 1.64 6.832 1.81067 7.472 2.152C8.12267 2.48267 8.63467 2.968 9.008 3.608L7.792 4.808C7.472 4.28533 7.088 3.88533 6.64 3.608C6.20267 3.33067 5.712 3.192 5.168 3.192C4.752 3.192 4.38933 3.256 4.08 3.384C3.77067 3.512 3.52533 3.69333 3.344 3.928C3.17333 4.152 3.088 4.41867 3.088 4.728C3.088 4.952 3.13067 5.16 3.216 5.352C3.30133 5.53333 3.42933 5.69867 3.6 5.848C3.78133 5.98667 4.02133 6.11467 4.32 6.232C4.61867 6.33867 4.976 6.43467 5.392 6.52C5.97867 6.648 6.50133 6.81333 6.96 7.016C7.41867 7.208 7.808 7.43733 8.128 7.704C8.448 7.97067 8.688 8.26933 8.848 8.6C9.01867 8.93067 9.104 9.288 9.104 9.672C9.104 10.3867 8.93867 11.0053 8.608 11.528C8.27733 12.0507 7.808 12.456 7.2 12.744C6.592 13.0213 5.86667 13.16 5.024 13.16ZM4.064 14.456V7.192L5.616 7.72V14.456H4.064ZM6.256 7.72L4.704 7.192V0.487999H6.256V7.72ZM11.4724 13L10.9444 11.688L14.3684 7.832C14.5497 7.64 14.7364 7.42133 14.9284 7.176C15.131 6.92 15.323 6.65867 15.5044 6.392C15.6857 6.12533 15.8297 5.864 15.9364 5.608C16.0537 5.34133 16.1124 5.09067 16.1124 4.856C16.1124 4.51467 16.043 4.22667 15.9044 3.992C15.7764 3.74667 15.5844 3.56 15.3284 3.432C15.083 3.304 14.7844 3.24 14.4324 3.24C14.123 3.24 13.819 3.33067 13.5204 3.512C13.2217 3.69333 12.9497 3.94933 12.7044 4.28C12.459 4.61067 12.267 4.99467 12.1284 5.432L10.8004 4.6C10.9817 3.98133 11.2537 3.45333 11.6164 3.016C11.9897 2.568 12.4324 2.22667 12.9444 1.992C13.467 1.75733 14.0324 1.64 14.6404 1.64C15.2697 1.64 15.8297 1.77333 16.3204 2.04C16.811 2.296 17.195 2.65867 17.4724 3.128C17.7497 3.58667 17.8884 4.12 17.8884 4.728C17.8884 4.97333 17.8617 5.224 17.8084 5.48C17.755 5.736 17.6697 6.00267 17.5524 6.28C17.435 6.54667 17.2857 6.82933 17.1044 7.128C16.923 7.416 16.7044 7.72 16.4484 8.04C16.203 8.36 15.9204 8.696 15.6004 9.048L13.0564 11.816L12.7364 11.336H18.2404V13H11.4724ZM23.374 13.048C22.6807 13.048 22.046 12.904 21.47 12.616C20.9047 12.3173 20.4513 11.9227 20.11 11.432C19.7687 10.9413 19.598 10.3973 19.598 9.8C19.598 9.46933 19.6407 9.16 19.726 8.872C19.822 8.57333 19.9607 8.30133 20.142 8.056C20.334 7.81067 20.5633 7.58667 20.83 7.384C21.0967 7.18133 21.406 7 21.758 6.84L21.662 7.176C21.3847 7.06933 21.134 6.94133 20.91 6.792C20.6967 6.632 20.51 6.45067 20.35 6.248C20.19 6.04533 20.0673 5.82667 19.982 5.592C19.9073 5.35733 19.87 5.112 19.87 4.856C19.87 4.29067 20.0247 3.77867 20.334 3.32C20.654 2.86133 21.0753 2.49333 21.598 2.216C22.1313 1.93867 22.7233 1.8 23.374 1.8C24.0247 1.8 24.6113 1.93867 25.134 2.216C25.6673 2.49333 26.0887 2.86133 26.398 3.32C26.718 3.77867 26.878 4.29067 26.878 4.856C26.878 5.112 26.8353 5.35733 26.75 5.592C26.6753 5.82667 26.5633 6.04 26.414 6.232C26.2647 6.424 26.0727 6.6 25.838 6.76C25.614 6.92 25.358 7.05867 25.07 7.176L25.022 6.904C25.342 7.032 25.63 7.19733 25.886 7.4C26.1527 7.60267 26.382 7.832 26.574 8.088C26.766 8.344 26.91 8.616 27.006 8.904C27.1127 9.192 27.166 9.49067 27.166 9.8C27.166 10.408 26.9953 10.9573 26.654 11.448C26.3127 11.9387 25.854 12.328 25.278 12.616C24.7127 12.904 24.078 13.048 23.374 13.048ZM23.374 11.448C23.7687 11.448 24.1207 11.3733 24.43 11.224C24.75 11.0747 25.0007 10.872 25.182 10.616C25.3633 10.36 25.454 10.0667 25.454 9.736C25.454 9.384 25.3633 9.07467 25.182 8.808C25.0007 8.53067 24.75 8.312 24.43 8.152C24.1207 7.992 23.7687 7.912 23.374 7.912C22.9793 7.912 22.6273 7.992 22.318 8.152C22.0087 8.312 21.7633 8.53067 21.582 8.808C21.4007 9.07467 21.31 9.384 21.31 9.736C21.31 10.056 21.4007 10.344 21.582 10.6C21.7633 10.856 22.0087 11.064 22.318 11.224C22.6273 11.3733 22.9793 11.448 23.374 11.448ZM23.374 6.376C23.7153 6.376 24.0193 6.312 24.286 6.184C24.5633 6.056 24.7767 5.88533 24.926 5.672C25.086 5.448 25.166 5.192 25.166 4.904C25.166 4.616 25.086 4.36 24.926 4.136C24.7767 3.912 24.5633 3.736 24.286 3.608C24.0193 3.46933 23.7153 3.4 23.374 3.4C23.0327 3.4 22.7233 3.46933 22.446 3.608C22.1793 3.736 21.966 3.912 21.806 4.136C21.6567 4.36 21.582 4.616 21.582 4.904C21.582 5.192 21.6567 5.448 21.806 5.672C21.966 5.88533 22.1793 6.056 22.446 6.184C22.7233 6.312 23.0327 6.376 23.374 6.376ZM29.5836 13V1.8H34.2556C34.9703 1.8 35.573 1.90667 36.0636 2.12C36.5543 2.33333 36.9223 2.65333 37.1676 3.08C37.4236 3.496 37.5516 4.008 37.5516 4.616C37.5516 5.224 37.381 5.74133 37.0396 6.168C36.709 6.59467 36.245 6.888 35.6476 7.048V6.728C36.149 6.83467 36.5863 7.02667 36.9596 7.304C37.333 7.57067 37.621 7.90667 37.8236 8.312C38.037 8.71733 38.1436 9.18133 38.1436 9.704C38.1436 10.2373 38.0583 10.712 37.8876 11.128C37.7276 11.5333 37.4823 11.8747 37.1516 12.152C36.8316 12.4293 36.4423 12.6427 35.9836 12.792C35.525 12.9307 35.0023 13 34.4156 13H29.5836ZM31.3116 11.336H34.3196C34.757 11.336 35.125 11.272 35.4236 11.144C35.733 11.016 35.9676 10.8293 36.1276 10.584C36.2983 10.328 36.3836 10.024 36.3836 9.672C36.3836 9.34133 36.293 9.05867 36.1116 8.824C35.941 8.58933 35.6956 8.41333 35.3756 8.296C35.0556 8.168 34.677 8.104 34.2396 8.104H31.3116V11.336ZM31.3116 6.44H34.1596C34.4796 6.44 34.7623 6.376 35.0076 6.248C35.2636 6.12 35.461 5.944 35.5996 5.72C35.749 5.496 35.8236 5.24 35.8236 4.952C35.8236 4.472 35.6636 4.104 35.3436 3.848C35.0236 3.592 34.565 3.464 33.9676 3.464H31.3116V6.44Z" fill="#18181B"/>
</svg>
