<svg width="42" height="13" viewBox="0 0 42 13" fill="none" xmlns="http://www.w3.org/2000/svg">
<path d="M2.472 11.216V2.128L3.064 2.576L0.856 3.744L0.392 2.24L3.384 0.639999H4.216V11.216H2.472ZM0.696 12V10.336H6.04V12H0.696ZM8.824 12.176C8.472 12.176 8.2 12.0747 8.008 11.872C7.816 11.6587 7.72 11.36 7.72 10.976C7.72 10.624 7.82133 10.336 8.024 10.112C8.22667 9.888 8.49333 9.776 8.824 9.776C9.176 9.776 9.448 9.88267 9.64 10.096C9.832 10.2987 9.928 10.592 9.928 10.976C9.928 11.328 9.82667 11.616 9.624 11.84C9.42133 12.064 9.15467 12.176 8.824 12.176ZM14.7526 12.112C14.0166 12.112 13.35 11.9467 12.7526 11.616C12.1553 11.2747 11.6593 10.7893 11.2646 10.16L12.2246 9.088C12.726 9.64267 13.1633 10.0213 13.5366 10.224C13.91 10.4267 14.3153 10.528 14.7526 10.528C15.19 10.528 15.5846 10.432 15.9366 10.24C16.2886 10.048 16.566 9.78667 16.7686 9.456C16.982 9.12533 17.0886 8.75733 17.0886 8.352C17.0886 7.92533 16.9873 7.54667 16.7846 7.216C16.5926 6.87467 16.3313 6.608 16.0006 6.416C15.67 6.21333 15.2966 6.112 14.8806 6.112C14.678 6.112 14.486 6.128 14.3046 6.16C14.1233 6.18133 13.9046 6.24 13.6486 6.336C13.3926 6.432 13.0566 6.58133 12.6406 6.784L11.7286 5.552L12.3846 0.799999H18.4326V2.4H13.4726L13.8086 2.096L13.2806 5.648L12.8806 5.184C12.9873 5.07733 13.1686 4.976 13.4246 4.88C13.6806 4.77333 13.9633 4.688 14.2726 4.624C14.5926 4.54933 14.8966 4.512 15.1846 4.512C15.8673 4.512 16.4753 4.672 17.0086 4.992C17.5526 5.30133 17.9793 5.73333 18.2886 6.288C18.6086 6.84267 18.7686 7.47733 18.7686 8.192C18.7686 8.928 18.5926 9.59467 18.2406 10.192C17.8886 10.7787 17.4086 11.248 16.8006 11.6C16.1926 11.9413 15.51 12.112 14.7526 12.112ZM21.5264 12L26.1664 1.888L26.3584 2.4H20.6944V0.799999H27.6224L27.8464 1.904L23.3824 12H21.5264ZM30.4703 12L37.8783 0.799999H39.5263L32.0383 12H30.4703ZM31.4943 6.736C31.0143 6.736 30.5876 6.608 30.2143 6.352C29.8516 6.08533 29.5636 5.728 29.3503 5.28C29.1476 4.82133 29.0463 4.29867 29.0463 3.712C29.0463 3.12533 29.1476 2.60267 29.3503 2.144C29.5636 1.67467 29.8569 1.312 30.2303 1.056C30.6036 0.789333 31.0303 0.655999 31.5103 0.655999C31.9903 0.655999 32.4116 0.789333 32.7743 1.056C33.1476 1.312 33.4356 1.67467 33.6383 2.144C33.8516 2.60267 33.9583 3.12533 33.9583 3.712C33.9583 4.27733 33.8516 4.78933 33.6383 5.248C33.4249 5.70667 33.1316 6.06933 32.7583 6.336C32.3849 6.60267 31.9636 6.736 31.4943 6.736ZM31.5103 5.536C31.7343 5.536 31.9263 5.46133 32.0863 5.312C32.2569 5.16267 32.3849 4.95467 32.4703 4.688C32.5663 4.41067 32.6143 4.08533 32.6143 3.712C32.6143 3.33867 32.5663 3.01333 32.4703 2.736C32.3849 2.45867 32.2569 2.24533 32.0863 2.096C31.9263 1.94667 31.7289 1.872 31.4943 1.872C31.2703 1.872 31.0729 1.952 30.9023 2.112C30.7316 2.26133 30.5983 2.47467 30.5023 2.752C30.4169 3.01867 30.3743 3.33867 30.3743 3.712C30.3743 4.08533 30.4169 4.41067 30.5023 4.688C30.5983 4.95467 30.7316 5.16267 30.9023 5.312C31.0729 5.46133 31.2756 5.536 31.5103 5.536ZM38.5823 12.144C38.1023 12.144 37.6756 12.0107 37.3023 11.744C36.9396 11.4773 36.6516 11.12 36.4383 10.672C36.2249 10.2133 36.1183 9.696 36.1183 9.12C36.1183 8.53333 36.2196 8.01067 36.4223 7.552C36.6356 7.08267 36.9289 6.72 37.3023 6.464C37.6756 6.19733 38.1023 6.064 38.5823 6.064C39.0623 6.064 39.4836 6.19733 39.8463 6.464C40.2196 6.72 40.5076 7.08267 40.7103 7.552C40.9236 8.01067 41.0303 8.53333 41.0303 9.12C41.0303 9.68533 40.9236 10.1973 40.7103 10.656C40.4969 11.1147 40.2036 11.4773 39.8303 11.744C39.4676 12.0107 39.0516 12.144 38.5823 12.144ZM38.5823 10.96C38.8063 10.96 39.0036 10.8853 39.1743 10.736C39.3449 10.576 39.4729 10.3627 39.5583 10.096C39.6543 9.81867 39.7023 9.49333 39.7023 9.12C39.7023 8.74667 39.6543 8.42667 39.5583 8.16C39.4729 7.88267 39.3449 7.66933 39.1743 7.52C39.0036 7.36 38.8063 7.28 38.5823 7.28C38.3476 7.28 38.1449 7.35467 37.9743 7.504C37.8036 7.65333 37.6703 7.86667 37.5743 8.144C37.4889 8.42133 37.4462 8.74667 37.4462 9.12C37.4462 9.49333 37.4889 9.81867 37.5743 10.096C37.6703 10.3627 37.8036 10.576 37.9743 10.736C38.1449 10.8853 38.3476 10.96 38.5823 10.96Z" fill="#10B981"/>
</svg>
