<svg width="19" height="11" viewBox="0 0 19 11" fill="none" xmlns="http://www.w3.org/2000/svg">
<path d="M3.514 10.14C2.82333 10.14 2.22133 9.98133 1.708 9.664C1.204 9.34667 0.728 8.81467 0.28 8.068L1.456 7.326C1.68933 7.67133 1.918 7.956 2.142 8.18C2.37533 8.39467 2.61333 8.55333 2.856 8.656C3.09867 8.75867 3.35533 8.81 3.626 8.81C3.95267 8.81 4.256 8.73067 4.536 8.572C4.816 8.404 5.04 8.17533 5.208 7.886C5.376 7.59667 5.46 7.27 5.46 6.906C5.46 6.542 5.39467 6.234 5.264 5.982C5.13333 5.72067 4.942 5.52467 4.69 5.394C4.438 5.254 4.13933 5.184 3.794 5.184C3.63533 5.184 3.46733 5.20267 3.29 5.24C3.122 5.268 2.94 5.31467 2.744 5.38C2.548 5.436 2.33333 5.51067 2.1 5.604L1.68 4.498L4.704 1.166L4.998 1.6H0.826V0.199999H6.44L6.72 0.76L3.514 4.316L3.164 3.952C3.23867 3.91467 3.36 3.882 3.528 3.854C3.70533 3.81667 3.85 3.798 3.962 3.798C4.37267 3.798 4.75533 3.87733 5.11 4.036C5.474 4.18533 5.78667 4.4 6.048 4.68C6.31867 4.95067 6.52867 5.27267 6.678 5.646C6.83667 6.01 6.916 6.402 6.916 6.822C6.916 7.45667 6.762 8.026 6.454 8.53C6.15533 9.02467 5.74933 9.41667 5.236 9.706C4.72267 9.99533 4.14867 10.14 3.514 10.14ZM9.20616 10.154C8.89816 10.154 8.66016 10.0653 8.49216 9.888C8.32416 9.70133 8.24016 9.44 8.24016 9.104C8.24016 8.796 8.32882 8.544 8.50616 8.348C8.68349 8.152 8.91682 8.054 9.20616 8.054C9.51416 8.054 9.75216 8.14733 9.92016 8.334C10.0882 8.51133 10.1722 8.768 10.1722 9.104C10.1722 9.412 10.0835 9.664 9.90616 9.86C9.72882 10.056 9.49549 10.154 9.20616 10.154ZM14.1877 10L14.1317 9.86L17.0437 3.672L17.0857 4.834C16.9177 5.114 16.731 5.36133 16.5257 5.576C16.3297 5.79067 16.1104 5.97733 15.8677 6.136C15.6344 6.28533 15.3917 6.402 15.1397 6.486C14.8877 6.56067 14.631 6.598 14.3697 6.598C13.8377 6.598 13.3477 6.458 12.8997 6.178C12.4517 5.898 12.0924 5.52467 11.8217 5.058C11.551 4.59133 11.4157 4.08267 11.4157 3.532C11.4157 2.86933 11.565 2.27667 11.8637 1.754C12.1624 1.222 12.5684 0.802 13.0817 0.494C13.6044 0.186 14.1877 0.0319998 14.8317 0.0319998C15.2984 0.0319998 15.737 0.116 16.1477 0.284C16.5584 0.451999 16.9177 0.689999 17.2257 0.998C17.5337 1.29667 17.7764 1.64667 17.9537 2.048C18.131 2.44 18.2197 2.86 18.2197 3.308C18.2197 3.54133 18.1964 3.79333 18.1497 4.064C18.103 4.32533 18.0237 4.624 17.9117 4.96C17.809 5.28667 17.669 5.66467 17.4917 6.094C17.3144 6.514 17.095 7.004 16.8337 7.564L15.6717 10H14.1877ZM14.6917 5.198C15.0557 5.198 15.3824 5.11867 15.6717 4.96C15.961 4.792 16.185 4.57267 16.3437 4.302C16.5117 4.022 16.5957 3.70933 16.5957 3.364C16.5957 3 16.5164 2.67333 16.3577 2.384C16.199 2.08533 15.975 1.852 15.6857 1.684C15.4057 1.516 15.0837 1.432 14.7197 1.432C14.3837 1.432 14.085 1.516 13.8237 1.684C13.5624 1.84267 13.3524 2.06667 13.1937 2.356C13.0444 2.636 12.9697 2.96733 12.9697 3.35C12.9697 3.67667 13.0444 3.98 13.1937 4.26C13.3524 4.54 13.5624 4.76867 13.8237 4.946C14.085 5.114 14.3744 5.198 14.6917 5.198Z" fill="#27272A"/>
</svg>
