<svg width="20" height="11" viewBox="0 0 20 11" fill="none" xmlns="http://www.w3.org/2000/svg">
<path d="M4.928 10V2.104L5.278 2.188L2.058 6.122L2.002 5.954H8.092V7.34H1.064L0.42 6.08L5.222 0.199999H6.384V10H4.928ZM10.4776 10.154C10.1696 10.154 9.93164 10.0653 9.76364 9.888C9.59564 9.70133 9.51164 9.44 9.51164 9.104C9.51164 8.796 9.60031 8.544 9.77764 8.348C9.95497 8.152 10.1883 8.054 10.4776 8.054C10.7856 8.054 11.0236 8.14733 11.1916 8.334C11.3596 8.51133 11.4436 8.768 11.4436 9.104C11.4436 9.412 11.355 9.664 11.1776 9.86C11.0003 10.056 10.767 10.154 10.4776 10.154ZM15.7812 10.14C15.0905 10.14 14.4885 9.98133 13.9752 9.664C13.4712 9.34667 12.9952 8.81467 12.5472 8.068L13.7232 7.326C13.9565 7.67133 14.1852 7.956 14.4092 8.18C14.6425 8.39467 14.8805 8.55333 15.1232 8.656C15.3659 8.75867 15.6225 8.81 15.8932 8.81C16.2199 8.81 16.5232 8.73067 16.8032 8.572C17.0832 8.404 17.3072 8.17533 17.4752 7.886C17.6432 7.59667 17.7272 7.27 17.7272 6.906C17.7272 6.542 17.6619 6.234 17.5312 5.982C17.4005 5.72067 17.2092 5.52467 16.9572 5.394C16.7052 5.254 16.4065 5.184 16.0612 5.184C15.9025 5.184 15.7345 5.20267 15.5572 5.24C15.3892 5.268 15.2072 5.31467 15.0112 5.38C14.8152 5.436 14.6005 5.51067 14.3672 5.604L13.9472 4.498L16.9712 1.166L17.2652 1.6H13.0932V0.199999H18.7072L18.9872 0.76L15.7812 4.316L15.4312 3.952C15.5059 3.91467 15.6272 3.882 15.7952 3.854C15.9725 3.81667 16.1172 3.798 16.2292 3.798C16.6399 3.798 17.0225 3.87733 17.3772 4.036C17.7412 4.18533 18.0539 4.4 18.3152 4.68C18.5859 4.95067 18.7959 5.27267 18.9452 5.646C19.1039 6.01 19.1832 6.402 19.1832 6.822C19.1832 7.45667 19.0292 8.026 18.7212 8.53C18.4225 9.02467 18.0165 9.41667 17.5032 9.706C16.9899 9.99533 16.4159 10.14 15.7812 10.14Z" fill="#27272A"/>
</svg>
