<svg width="20" height="11" viewBox="0 0 20 11" fill="none" xmlns="http://www.w3.org/2000/svg">
<path d="M4.928 10V2.104L5.278 2.188L2.058 6.122L2.002 5.954H8.092V7.34H1.064L0.42 6.08L5.222 0.199999H6.384V10H4.928ZM10.4776 10.154C10.1696 10.154 9.93164 10.0653 9.76364 9.888C9.59564 9.70133 9.51164 9.44 9.51164 9.104C9.51164 8.796 9.60031 8.544 9.77764 8.348C9.95497 8.152 10.1883 8.054 10.4776 8.054C10.7856 8.054 11.0236 8.14733 11.1916 8.334C11.3596 8.51133 11.4436 8.768 11.4436 9.104C11.4436 9.412 11.355 9.664 11.1776 9.86C11.0003 10.056 10.767 10.154 10.4776 10.154ZM16.2292 10C15.7439 10 15.2912 9.916 14.8712 9.748C14.4605 9.57067 14.1012 9.328 13.7932 9.02C13.4945 8.712 13.2565 8.348 13.0792 7.928C12.9112 7.508 12.8272 7.046 12.8272 6.542C12.8272 6.29 12.8599 6.01 12.9252 5.702C12.9999 5.38467 13.1072 5.03933 13.2472 4.666C13.3965 4.29267 13.5739 3.90067 13.7792 3.49C13.9845 3.07 14.2225 2.636 14.4932 2.188L15.7672 0.0319998H17.2372L17.2932 0.172L15.7532 2.762C15.4732 3.238 15.2212 3.69067 14.9972 4.12C14.7825 4.54933 14.6005 4.95533 14.4512 5.338C14.3019 5.71133 14.1899 6.052 14.1152 6.36L13.7792 4.918C13.9565 4.62867 14.1479 4.37667 14.3532 4.162C14.5585 3.938 14.7779 3.75133 15.0112 3.602C15.2539 3.45267 15.5059 3.34067 15.7672 3.266C16.0285 3.19133 16.2992 3.154 16.5792 3.154C17.1205 3.154 17.6152 3.30333 18.0632 3.602C18.5205 3.89133 18.8845 4.27867 19.1552 4.764C19.4352 5.24933 19.5752 5.78133 19.5752 6.36C19.5752 7.06 19.4305 7.68533 19.1412 8.236C18.8612 8.77733 18.4692 9.20667 17.9652 9.524C17.4612 9.84133 16.8825 10 16.2292 10ZM16.2292 8.6C16.5932 8.6 16.9152 8.516 17.1952 8.348C17.4845 8.17067 17.7085 7.928 17.8672 7.62C18.0352 7.30267 18.1192 6.94333 18.1192 6.542C18.1192 6.19667 18.0352 5.87467 17.8672 5.576C17.6992 5.268 17.4752 5.02067 17.1952 4.834C16.9152 4.64733 16.6025 4.554 16.2572 4.554C15.8745 4.554 15.5339 4.64267 15.2352 4.82C14.9365 4.99733 14.7032 5.23533 14.5352 5.534C14.3672 5.83267 14.2832 6.164 14.2832 6.528C14.2832 6.92 14.3672 7.27467 14.5352 7.592C14.7032 7.9 14.9319 8.14733 15.2212 8.334C15.5105 8.51133 15.8465 8.6 16.2292 8.6Z" fill="#27272A"/>
</svg>
