<svg width="20" height="19" viewBox="0 0 20 19" fill="none" xmlns="http://www.w3.org/2000/svg">
<path fill-rule="evenodd" clip-rule="evenodd" d="M18 0C17.2636 0 16.6667 0.59695 16.6667 1.33333V8C16.6667 8.7364 17.2636 9.3333 18 9.3333C18.7364 9.3333 19.3333 8.7364 19.3333 8V1.33333C19.3333 0.59695 18.7364 0 18 0ZM7.33329 5.33333C6.59699 5.33333 5.99999 5.93029 5.99999 6.6667V12C5.99999 12.7364 6.59699 13.3333 7.33329 13.3333C8.06969 13.3333 8.66669 12.7364 8.66669 12V6.6667C8.66669 5.93029 8.06969 5.33333 7.33329 5.33333ZM2 13.3333C1.26362 13.3333 0.666656 13.9303 0.666656 14.6667V17.3333C0.666656 18.0697 1.26362 18.6667 2 18.6667C2.73637 18.6667 3.33333 18.0697 3.33333 17.3333V14.6667C3.33333 13.9303 2.73637 13.3333 2 13.3333ZM11.3333 6.6667C11.3333 5.93029 11.9303 5.33333 12.6667 5.33333C13.4031 5.33333 14 5.93029 14 6.6667V8C14 8.7364 13.4031 9.3333 12.6667 9.3333C11.9303 9.3333 11.3333 8.7364 11.3333 8V6.6667Z" fill="black"/>
</svg>
