<svg width="22" height="28" viewBox="0 0 22 28" fill="none" xmlns="http://www.w3.org/2000/svg">
<path fill-rule="evenodd" clip-rule="evenodd" d="M13.9884 0.666749H8.01161C6.93831 0.666729 6.05251 0.666719 5.33091 0.725669C4.58144 0.786909 3.8925 0.918329 3.24539 1.24805C2.24186 1.75937 1.42596 2.57527 0.914644 3.5788C0.584924 4.22591 0.453504 4.91485 0.392264 5.66431C0.333314 6.3859 0.333324 7.27171 0.333344 8.34502V19.6551C0.333324 20.7284 0.333314 21.6142 0.392264 22.3358C0.453504 23.0853 0.584924 23.7742 0.914644 24.4213C1.42596 25.4249 2.24186 26.2408 3.24539 26.7521C3.8925 27.0818 4.58144 27.2132 5.33091 27.2745C6.05251 27.3334 6.93831 27.3334 8.01161 27.3334H13.9884C15.0617 27.3334 15.9475 27.3334 16.6691 27.2745C17.4186 27.2132 18.1075 27.0818 18.7546 26.7521C19.7581 26.2408 20.574 25.4249 21.0854 24.4213C21.4151 23.7742 21.5465 23.0853 21.6077 22.3358C21.6667 21.6142 21.6667 20.7285 21.6667 19.6552V8.34502C21.6667 7.27172 21.6667 6.38589 21.6077 5.66431C21.5465 4.91485 21.4151 4.22591 21.0854 3.5788C20.574 2.57527 19.7581 1.75937 18.7546 1.24805C18.1075 0.918329 17.4186 0.786909 16.6691 0.725669C15.9475 0.666719 15.0617 0.666729 13.9884 0.666749ZM4.45603 3.62406C4.66457 3.51781 4.9635 3.43124 5.54801 3.38348C5.93951 3.3515 6.40601 3.33994 7.00001 3.33576V4.66675C7.00001 5.40313 7.59691 6.00008 8.33331 6.00008H13.6667C14.403 6.00008 15 5.40313 15 4.66675V3.33576C15.594 3.33994 16.0605 3.3515 16.4519 3.38348C17.0365 3.43124 17.3354 3.51781 17.544 3.62406C18.0457 3.87973 18.4537 4.28767 18.7093 4.78944C18.8156 4.99797 18.9022 5.29691 18.9499 5.88146C18.999 6.48158 19 7.25797 19 8.40012V19.6001C19 20.7422 18.999 21.5186 18.9499 22.1187C18.9022 22.7032 18.8156 23.0022 18.7093 23.2107C18.4537 23.7125 18.0457 24.1204 17.544 24.3761C17.3354 24.4823 17.0365 24.5689 16.4519 24.6167C15.8518 24.6657 15.0754 24.6667 13.9333 24.6667H8.06671C6.92461 24.6667 6.14821 24.6657 5.54801 24.6167C4.9635 24.5689 4.66457 24.4823 4.45603 24.3761C3.95427 24.1204 3.54632 23.7125 3.29066 23.2107C3.1844 23.0022 3.09784 22.7032 3.05008 22.1187C3.00104 21.5186 3.00001 20.7422 3.00001 19.6001V8.40012C3.00001 7.25797 3.00104 6.48158 3.05008 5.88146C3.09784 5.29691 3.1844 4.99797 3.29066 4.78944C3.54632 4.28767 3.95427 3.87973 4.45603 3.62406Z" fill="black"/>
</svg>
